<?xml version="1.0" encoding="UTF-8" standalone="no"?>
<svg
   xmlns:dc="http://purl.org/dc/elements/1.1/"
   xmlns:cc="http://creativecommons.org/ns#"
   xmlns:rdf="http://www.w3.org/1999/02/22-rdf-syntax-ns#"
   xmlns:svg="http://www.w3.org/2000/svg"
   xmlns="http://www.w3.org/2000/svg"
   xmlns:sodipodi="http://sodipodi.sourceforge.net/DTD/sodipodi-0.dtd"
   xmlns:inkscape="http://www.inkscape.org/namespaces/inkscape"
   width="210"
   height="210"
   viewBox="0 0 210 210"
   preserveAspectRatio="none"
   id="svg2"
   version="1.1"
   inkscape:version="0.91 r13725"
   sodipodi:docname="avatar-mapinsa.svg">
  <metadata
     id="metadata17">
    <rdf:RDF>
      <cc:Work
         rdf:about="">
        <dc:format>image/svg+xml</dc:format>
        <dc:type
           rdf:resource="http://purl.org/dc/dcmitype/StillImage" />
        <dc:title></dc:title>
      </cc:Work>
    </rdf:RDF>
  </metadata>
  <sodipodi:namedview
     pagecolor="#ffffff"
     bordercolor="#666666"
     borderopacity="1"
     objecttolerance="10"
     gridtolerance="10"
     guidetolerance="10"
     inkscape:pageopacity="0"
     inkscape:pageshadow="2"
     inkscape:window-width="1366"
     inkscape:window-height="705"
     id="namedview15"
     showgrid="false"
     inkscape:zoom="1.5115134"
     inkscape:cx="33.650684"
     inkscape:cy="120.10678"
     inkscape:window-x="-8"
     inkscape:window-y="-8"
     inkscape:window-maximized="1"
     inkscape:current-layer="holder_14f72f5511e"
     showguides="false" />
  <defs
     id="defs4">
    <style
       type="text/css"
       id="style6"><![CDATA[#holder_14f72f5511e text { fill:#AAAAAA;font-weight:bold;font-family:Arial, Helvetica, Open Sans, sans-serif, monospace;font-size:12pt } ]]></style>
  </defs>
  <g
     id="holder_14f72f5511e"
     transform="translate(0,146)">
    <rect
       width="211.12148"
       height="213.36145"
       id="rect9"
       x="0"
       y="-146.20602"
       style="fill:#eeeeee" />
    <path
       style="fill:#aaaaaa;fill-opacity:1"
       d="m 99.811192,-135.58427 c -23.688978,0 -42.95928,19.27067 -42.95928,42.962398 l 0,13.504413 c -1.592698,2.232084 -2.458456,4.92598 -2.458456,7.676854 l 0,9.594508 c 0,3.91291 1.75446,7.644128 4.736646,10.147739 0.752317,2.403915 1.684523,4.857937 2.775477,7.306995 2.216699,5.790366 5.415856,11.793985 9.258842,17.3646 1.620763,2.350486 3.752604,5.190476 6.278235,7.996981 -2.295429,1.638942 -3.937405,3.574437 -4.677596,5.812028 L 42.135359,-3.9340487 C 28.660006,-0.06133133 18.55867,37.770492 12.876299,65.611388 l 188.039351,0 C 195.23567,37.487763 185.03306,-0.02097083 171.41727,-3.9340487 l -30.62972,-9.2837053 c -0.74016,-2.238151 -2.37905,-4.173061 -4.67449,-5.812028 2.52508,-2.805387 4.65489,-5.64448 6.27513,-7.993872 3.84351,-5.574461 7.04326,-11.578277 9.25885,-17.370817 1.09043,-2.44302 2.02207,-4.897214 2.77547,-7.303887 2.98219,-2.499208 4.73664,-6.231506 4.73664,-10.147739 l 0,-9.594508 c 0,-2.753628 -0.86575,-5.444746 -2.45845,-7.676854 l 0,-13.504413 c 0,-23.691728 -19.27342,-42.962398 -42.9624,-42.962398 l -13.927108,0 z m -6.194315,52.277185 c 6.21495,0 11.367703,2.067551 15.316403,6.144583 4.91966,5.084879 10.59035,7.664414 16.85489,7.664414 3.54612,0 7.21039,-0.836441 10.89367,-2.486426 0.85143,-0.381661 1.83896,-0.308426 2.62318,0.198914 0.36626,0.237246 0.66535,0.554847 0.87958,0.919981 l 1.50428,0 c 1.52055,0 2.75372,1.233189 2.75372,2.75372 l 0,4.534625 c 0,0.931816 -0.47107,1.801485 -1.25253,2.309272 l -2.67292,1.737391 -0.14919,1.134436 c -0.87016,6.584478 -4.56319,15.11234 -9.88044,22.819205 -6.73322,9.766047 -13.04662,14.138458 -16.31409,14.138458 l -14.79114,0 c -3.268028,0 -9.580342,-4.373879 -16.31409,-14.141568 -5.318363,-7.703574 -9.013962,-16.229803 -9.883555,-22.80988 l -0.149189,-1.140651 -2.669806,-1.737391 c -0.781469,-0.507783 -1.255645,-1.377432 -1.255645,-2.309272 l 0,-4.531518 c 0,-1.520539 1.233183,-2.75372 2.753719,-2.75372 l 1.125112,0 0,-4.910696 c 0,-1.04364 0.592035,-1.998226 1.526043,-2.464671 3.791224,-1.892867 11.312521,-5.069206 19.101998,-5.069206 z M 87.988228,-9.56581 c 0.466806,-0.01305 0.937883,0.091453 1.364421,0.3170197 2.252482,1.1906715 4.501757,1.9930542 6.685393,2.3807543 1.314591,0.2329213 2.271966,1.3752425 2.271966,2.7102093 l 0,6.8656535 c 0.391579,0.1538484 0.749498,0.3979323 1.038087,0.7179562 0.522092,0.5788083 0.772955,1.3504489 0.693095,2.1258975 L 98.533792,20.187418 c -0.116295,1.126239 -0.911148,2.067421 -2.001578,2.371442 -0.244357,0.06827 -0.494067,0.102555 -0.739707,0.102555 -0.850317,0 -1.668134,-0.396094 -2.197389,-1.097132 L 85.856111,11.301549 C 85.495924,10.823532 85.302328,10.240468 85.30288,9.6418565 l 0.0094,-16.4570558 c 5.68e-4,-0.9648696 0.506178,-1.8574655 1.333355,-2.3558905 0.413604,-0.2489309 0.875853,-0.3817232 1.342668,-0.3947202 z m 37.573052,0 c 0.46688,0.013051 0.92906,0.1458192 1.34267,0.3947202 0.82718,0.4984241 1.33336,1.3935695 1.33336,2.3590007 l 0,16.4539456 c 0,0.5980925 -0.19313,1.1822025 -0.55324,1.6596925 l -7.72658,10.253415 c -0.52872,0.701609 -1.35014,1.09713 -2.20049,1.09713 -0.24563,0 -0.49208,-0.03108 -0.73661,-0.09947 -1.09039,-0.303623 -1.88537,-1.245171 -2.00157,-2.371424 L 113.50831,5.5516722 c -0.0797,-0.7754172 0.17418,-1.5470957 0.6962,-2.1258974 0.28876,-0.3200074 0.64598,-0.5637682 1.03809,-0.7179563 l 0,-6.8656531 c 0,-1.3349624 0.95741,-2.4767159 2.27198,-2.7102093 2.18254,-0.3877062 4.43035,-1.1875359 6.68227,-2.3776468 0.42681,-0.22525 0.89755,-0.3332015 1.36443,-0.320128 z"
       id="path3"
       inkscape:connector-curvature="0" />
  </g>
</svg>
