<?xml version="1.0" encoding="UTF-8" standalone="no"?>
<svg
   xmlns:dc="http://purl.org/dc/elements/1.1/"
   xmlns:cc="http://creativecommons.org/ns#"
   xmlns:rdf="http://www.w3.org/1999/02/22-rdf-syntax-ns#"
   xmlns:svg="http://www.w3.org/2000/svg"
   xmlns="http://www.w3.org/2000/svg"
   xmlns:sodipodi="http://sodipodi.sourceforge.net/DTD/sodipodi-0.dtd"
   xmlns:inkscape="http://www.inkscape.org/namespaces/inkscape"
   width="128"
   height="128"
   viewBox="0 0 128 128"
   preserveAspectRatio="none"
   id="svg2"
   version="1.1"
   inkscape:version="0.91 r13725"
   sodipodi:docname="avatar.svg">
  <metadata
     id="metadata17">
    <rdf:RDF>
      <cc:Work
         rdf:about="">
        <dc:format>image/svg+xml</dc:format>
        <dc:type
           rdf:resource="http://purl.org/dc/dcmitype/StillImage" />
        <dc:title></dc:title>
      </cc:Work>
    </rdf:RDF>
  </metadata>
  <sodipodi:namedview
     pagecolor="#ffffff"
     bordercolor="#666666"
     borderopacity="1"
     objecttolerance="10"
     gridtolerance="10"
     guidetolerance="10"
     inkscape:pageopacity="0"
     inkscape:pageshadow="2"
     inkscape:window-width="1366"
     inkscape:window-height="705"
     id="namedview15"
     showgrid="false"
     inkscape:zoom="3.6875"
     inkscape:cx="9.9715646"
     inkscape:cy="66.32343"
     inkscape:window-x="-8"
     inkscape:window-y="-8"
     inkscape:window-maximized="1"
     inkscape:current-layer="holder_14f72f5511e"
     showguides="false" />
  <defs
     id="defs4">
    <style
       type="text/css"
       id="style6"><![CDATA[#holder_14f72f5511e text { fill:#AAAAAA;font-weight:bold;font-family:Arial, Helvetica, Open Sans, sans-serif, monospace;font-size:12pt } ]]></style>
  </defs>
  <g
     id="holder_14f72f5511e"
     transform="translate(0,64)">
    <rect
       width="127.79949"
       height="129.15543"
       id="rect9"
       x="0"
       y="-64"
       style="fill:#eeeeee" />
    <path
       style="fill:#aaaaaa;fill-opacity:1"
       d="m 60.419339,-57.57027 c -14.3398,0 -26.004813,11.665232 -26.004813,26.006695 l 0,8.174716 c -0.964118,1.351158 -1.488193,2.981875 -1.488193,4.647076 l 0,5.807905 c 0,2.368627 1.062038,4.627268 2.867264,6.1427949 0.455405,1.455177 1.019703,2.9406857 1.680097,4.4231891 1.341848,3.505119 3.278414,7.1393273 5.604713,10.511423 0.981107,1.422834 2.271587,3.141983 3.800443,4.840862 -1.389506,0.992112 -2.383454,2.163737 -2.831518,3.518232 l -18.54127,5.619764 C 17.348942,24.466683 11.234236,47.367659 7.7944915,64.220764 l 113.8270385,0 C 118.18324,47.196513 112.00723,24.491115 103.76509,22.122387 L 85.223815,16.502623 c -0.448047,-1.354834 -1.44013,-2.526105 -2.829637,-3.518232 1.528518,-1.698202 2.81777,-3.416808 3.798563,-4.83898 2.326613,-3.3744237 4.263539,-7.0087515 5.604712,-10.5151863 0.660077,-1.4788487 1.224037,-2.9644615 1.680097,-4.4213078 1.80523,-1.5128609 2.867265,-3.7721569 2.867265,-6.1427949 l 0,-5.807905 c 0,-1.666872 -0.524074,-3.2959 -1.488194,-4.647076 l 0,-8.174716 c 0,-14.341463 -11.666898,-26.006695 -26.006695,-26.006695 l -8.430587,0 z m -3.749645,31.645274 c 3.762136,0 6.881286,1.251569 9.271576,3.719542 2.978045,3.07806 6.41072,4.639551 10.202873,4.639551 2.146601,0 4.364715,-0.506331 6.594333,-1.505126 0.515403,-0.231036 1.113189,-0.186703 1.587908,0.12041 0.221718,0.14361 0.402757,0.335869 0.532438,0.556896 l 0.910602,0 c 0.920439,0 1.666926,0.746493 1.666926,1.666928 l 0,2.744973 c 0,0.564062 -0.285158,1.090504 -0.758206,1.397886 l -1.61801,1.051706 -0.09031,0.686715 C 84.443086,-6.8596918 82.207557,-1.6974671 78.988831,2.967778 74.912969,8.879521 71.091238,11.5263 69.113323,11.5263 l -8.953618,0 c -1.978253,0 -5.799327,-2.647668 -9.875507,-8.5604043 -3.2194,-4.663253 -5.45648,-9.8244894 -5.982876,-13.8076487 l -0.09031,-0.690477 -1.61613,-1.051706 c -0.473052,-0.307379 -0.760088,-0.833809 -0.760088,-1.397886 l 0,-2.743092 c 0,-0.920438 0.746491,-1.666927 1.666926,-1.666926 l 0.681071,0 0,-2.972625 c 0,-0.631754 0.358381,-1.209599 0.92377,-1.491956 2.294965,-1.145819 6.847877,-3.068575 11.56313,-3.068575 z m -3.407228,44.638273 c 0.282579,-0.0079 0.567739,0.05536 0.825938,0.191904 1.363503,0.720757 2.725075,1.206468 4.046907,1.441157 0.79577,0.140996 1.375309,0.832484 1.375309,1.640588 l 0,4.156029 c 0.237036,0.09313 0.453694,0.240883 0.62839,0.434605 0.316035,0.350374 0.467893,0.817476 0.419554,1.286883 l -0.912483,8.859543 c -0.0704,0.681753 -0.55155,1.251485 -1.211627,1.43552 -0.14792,0.04132 -0.299078,0.06208 -0.447774,0.06208 -0.514726,0 -1.009783,-0.23977 -1.330156,-0.664134 L 51.97182,31.345047 c -0.218034,-0.289361 -0.335226,-0.642311 -0.33489,-1.004672 l 0.0057,-9.962053 c 3.43e-4,-0.584071 0.306407,-1.124391 0.807124,-1.426106 0.250371,-0.150687 0.530189,-0.231071 0.812768,-0.238939 z m 22.744334,0 c 0.282622,0.0079 0.562398,0.08827 0.812768,0.238939 0.500719,0.301714 0.807125,0.843578 0.807125,1.427989 l 0,9.96017 c 0,0.362047 -0.1169,0.71563 -0.334892,1.004672 l -4.677178,6.206764 c -0.320053,0.42471 -0.817293,0.664133 -1.332037,0.664133 -0.14869,0 -0.297873,-0.01881 -0.445894,-0.06021 -0.660053,-0.183794 -1.141287,-0.753747 -1.211626,-1.435509 l -0.914364,-8.855787 c -0.04824,-0.469388 0.105434,-0.936513 0.421435,-1.286883 0.174792,-0.193712 0.391032,-0.341269 0.628391,-0.434605 l 0,-4.156029 c 0,-0.808101 0.579559,-1.499246 1.375308,-1.640588 1.321175,-0.234693 2.681857,-0.718859 4.045026,-1.439276 0.258367,-0.136352 0.543317,-0.201699 0.825938,-0.193785 z"
       id="path3"
       inkscape:connector-curvature="0" />
  </g>
</svg>
